<mxfile host="app.diagrams.net" modified="2023-09-04T19:09:39.283Z" agent="Mozilla/5.0 (Windows NT 10.0; Win64; x64) AppleWebKit/537.36 (KHTML, like Gecko) Chrome/116.0.0.0 Safari/537.36 Edg/116.0.1938.69" etag="JbB-8H-8ze1D3fQrRK0F" version="21.7.2" type="github">
  <diagram name="PÃ¡gina-1" id="hyoygEu00sJUBRQJcLb9">
    <mxGraphModel dx="982" dy="549" grid="1" gridSize="10" guides="1" tooltips="1" connect="1" arrows="1" fold="1" page="1" pageScale="1" pageWidth="827" pageHeight="1169" math="0" shadow="0">
      <root>
        <mxCell id="0" />
        <mxCell id="1" parent="0" />
        <mxCell id="QoFn2yfLO23CZvwwbxpm-6" style="edgeStyle=orthogonalEdgeStyle;rounded=0;orthogonalLoop=1;jettySize=auto;html=1;entryX=1;entryY=0;entryDx=0;entryDy=0;" edge="1" parent="1" source="QoFn2yfLO23CZvwwbxpm-1" target="QoFn2yfLO23CZvwwbxpm-2">
          <mxGeometry relative="1" as="geometry" />
        </mxCell>
        <mxCell id="QoFn2yfLO23CZvwwbxpm-7" style="edgeStyle=orthogonalEdgeStyle;rounded=0;orthogonalLoop=1;jettySize=auto;html=1;" edge="1" parent="1" source="QoFn2yfLO23CZvwwbxpm-1" target="QoFn2yfLO23CZvwwbxpm-3">
          <mxGeometry relative="1" as="geometry" />
        </mxCell>
        <mxCell id="QoFn2yfLO23CZvwwbxpm-8" style="edgeStyle=orthogonalEdgeStyle;rounded=0;orthogonalLoop=1;jettySize=auto;html=1;entryX=0;entryY=0;entryDx=0;entryDy=0;" edge="1" parent="1" source="QoFn2yfLO23CZvwwbxpm-1" target="QoFn2yfLO23CZvwwbxpm-4">
          <mxGeometry relative="1" as="geometry" />
        </mxCell>
        <mxCell id="QoFn2yfLO23CZvwwbxpm-1" value="Instalacion Deportiva" style="rounded=0;whiteSpace=wrap;html=1;" vertex="1" parent="1">
          <mxGeometry x="130" y="90" width="120" height="60" as="geometry" />
        </mxCell>
        <mxCell id="QoFn2yfLO23CZvwwbxpm-2" value="&lt;b&gt;Nombre&lt;/b&gt;" style="ellipse;whiteSpace=wrap;html=1;" vertex="1" parent="1">
          <mxGeometry x="30" y="170" width="60" height="40" as="geometry" />
        </mxCell>
        <mxCell id="QoFn2yfLO23CZvwwbxpm-3" value="Tipo de instalacion" style="ellipse;whiteSpace=wrap;html=1;" vertex="1" parent="1">
          <mxGeometry x="70" y="210" width="120" height="40" as="geometry" />
        </mxCell>
        <mxCell id="QoFn2yfLO23CZvwwbxpm-5" value="" style="ellipse;whiteSpace=wrap;html=1;" vertex="1" parent="1">
          <mxGeometry x="198" y="200" width="110" height="55" as="geometry" />
        </mxCell>
        <mxCell id="QoFn2yfLO23CZvwwbxpm-4" value="Caracteristicas" style="ellipse;whiteSpace=wrap;html=1;" vertex="1" parent="1">
          <mxGeometry x="208" y="207.5" width="90" height="40" as="geometry" />
        </mxCell>
        <mxCell id="QoFn2yfLO23CZvwwbxpm-9" value="Socio" style="rounded=0;whiteSpace=wrap;html=1;" vertex="1" parent="1">
          <mxGeometry x="550" y="90" width="120" height="60" as="geometry" />
        </mxCell>
        <mxCell id="QoFn2yfLO23CZvwwbxpm-10" value="" style="ellipse;whiteSpace=wrap;html=1;" vertex="1" parent="1">
          <mxGeometry x="440" y="175" width="120" height="80" as="geometry" />
        </mxCell>
      </root>
    </mxGraphModel>
  </diagram>
</mxfile>
